REM DIRINDEX 1\2,1\3,1\4,1\5,1\6
REM DIRNAME cjc030,folder01,folder02,folder03,folder04,folder05
TITLE ""
FILE "Disc2Track52.mp3" MP3
  TRACK 01 AUDIO
    TITLE "3:cjc030_03617"
    INDEX 01 00:00:00
  TRACK 02 AUDIO
    TITLE "0:"
    INDEX 01 00:01:15
  TRACK 03 AUDIO
    TITLE "4:cjc030_03618"
    INDEX 01 00:01:22
  TRACK 04 AUDIO
    TITLE "0:"
    INDEX 01 00:02:24
  TRACK 05 AUDIO
    TITLE "5:cjc030_03619"
    INDEX 01 00:02:30
  TRACK 06 AUDIO
    TITLE "0:"
    INDEX 01 00:03:49
  TRACK 07 AUDIO
    TITLE "6:cjc030_03620"
    INDEX 01 00:03:64
  TRACK 08 AUDIO
    TITLE "0:"
    INDEX 01 00:05:40
  TRACK 09 AUDIO
    TITLE "3:cjc030_03621"
    INDEX 01 00:06:14
  TRACK 10 AUDIO
    TITLE "0:"
    INDEX 01 00:07:29
  TRACK 11 AUDIO
    TITLE "4:cjc030_03622"
    INDEX 01 00:07:37
  TRACK 12 AUDIO
    TITLE "0:"
    INDEX 01 00:08:32
  TRACK 13 AUDIO
    TITLE "5:cjc030_03623"
    INDEX 01 00:08:40
  TRACK 14 AUDIO
    TITLE "0:"
    INDEX 01 00:09:57
  TRACK 15 AUDIO
    TITLE "6:cjc030_03624"
    INDEX 01 00:09:69
  TRACK 16 AUDIO
    TITLE "0:"
    INDEX 01 00:11:40
  TRACK 17 AUDIO
    TITLE "3:cjc030_03625"
    INDEX 01 00:12:11
  TRACK 18 AUDIO
    TITLE "0:"
    INDEX 01 00:13:20
  TRACK 19 AUDIO
    TITLE "4:cjc030_03626"
    INDEX 01 00:13:28
  TRACK 20 AUDIO
    TITLE "0:"
    INDEX 01 00:15:48
  TRACK 21 AUDIO
    TITLE "5:cjc030_03627"
    INDEX 01 00:15:58
  TRACK 22 AUDIO
    TITLE "0:"
    INDEX 01 00:16:67
  TRACK 23 AUDIO
    TITLE "6:cjc030_03628"
    INDEX 01 00:17:04
  TRACK 24 AUDIO
    TITLE "0:"
    INDEX 01 00:19:15
  TRACK 25 AUDIO
    TITLE "3:cjc030_03629"
    INDEX 01 00:19:60
  TRACK 26 AUDIO
    TITLE "0:"
    INDEX 01 00:21:00
  TRACK 27 AUDIO
    TITLE "4:cjc030_03630"
    INDEX 01 00:21:09
  TRACK 28 AUDIO
    TITLE "0:"
    INDEX 01 00:22:09
  TRACK 29 AUDIO
    TITLE "5:cjc030_03631"
    INDEX 01 00:22:19
  TRACK 30 AUDIO
    TITLE "0:"
    INDEX 01 00:23:34
  TRACK 31 AUDIO
    TITLE "6:cjc030_03632"
    INDEX 01 00:23:46
  TRACK 32 AUDIO
    TITLE "0:"
    INDEX 01 00:28:27
  TRACK 33 AUDIO
    TITLE "3:cjc030_03633"
    INDEX 01 00:29:05
  TRACK 34 AUDIO
    TITLE "0:"
    INDEX 01 00:30:18
  TRACK 35 AUDIO
    TITLE "4:cjc030_03634"
    INDEX 01 00:30:28
  TRACK 36 AUDIO
    TITLE "0:"
    INDEX 01 00:32:70
  TRACK 37 AUDIO
    TITLE "5:cjc030_03635"
    INDEX 01 00:33:03
  TRACK 38 AUDIO
    TITLE "0:"
    INDEX 01 00:34:16
  TRACK 39 AUDIO
    TITLE "6:cjc030_03636"
    INDEX 01 00:34:30
  TRACK 40 AUDIO
    TITLE "0:"
    INDEX 01 00:40:01
  TRACK 41 AUDIO
    TITLE "3:cjc030_03637"
    INDEX 01 00:40:50
  TRACK 42 AUDIO
    TITLE "0:"
    INDEX 01 00:41:67
  TRACK 43 AUDIO
    TITLE "4:cjc030_03638"
    INDEX 01 00:42:04
  TRACK 44 AUDIO
    TITLE "0:"
    INDEX 01 00:44:30
  TRACK 45 AUDIO
    TITLE "5:cjc030_03639"
    INDEX 01 00:44:40
  TRACK 46 AUDIO
    TITLE "0:"
    INDEX 01 00:45:57
  TRACK 47 AUDIO
    TITLE "6:cjc030_03640"
    INDEX 01 00:45:69
  TRACK 48 AUDIO
    TITLE "0:"
    INDEX 01 00:48:57
  TRACK 49 AUDIO
    TITLE "3:cjc030_03641"
    INDEX 01 00:49:31
  TRACK 50 AUDIO
    TITLE "0:"
    INDEX 01 00:50:42
  TRACK 51 AUDIO
    TITLE "4:cjc030_03642"
    INDEX 01 00:50:52
  TRACK 52 AUDIO
    TITLE "0:"
    INDEX 01 00:53:27
  TRACK 53 AUDIO
    TITLE "5:cjc030_03643"
    INDEX 01 00:53:37
  TRACK 54 AUDIO
    TITLE "0:"
    INDEX 01 00:54:48
  TRACK 55 AUDIO
    TITLE "3:cjc030_03644"
    INDEX 01 00:55:28
  TRACK 56 AUDIO
    TITLE "0:"
    INDEX 01 00:56:29
  TRACK 57 AUDIO
    TITLE "4:cjc030_03645"
    INDEX 01 00:56:37
  TRACK 58 AUDIO
    TITLE "0:"
    INDEX 01 00:57:72
  TRACK 59 AUDIO
    TITLE "5:cjc030_03646"
    INDEX 01 00:58:03
  TRACK 60 AUDIO
    TITLE "0:"
    INDEX 01 00:59:04
  TRACK 61 AUDIO
    TITLE "6:cjc030_03647"
    INDEX 01 00:59:18
  TRACK 62 AUDIO
    TITLE "0:"
    INDEX 01 01:00:62
